<?xml version="1.0" encoding="UTF-8"?>
<!--Generator: Apple Native CoreSVG 175-->
<!DOCTYPE svg
PUBLIC "-//W3C//DTD SVG 1.1//EN"
       "http://www.w3.org/Graphics/SVG/1.1/DTD/svg11.dtd">
<svg version="1.1" xmlns="http://www.w3.org/2000/svg" xmlns:xlink="http://www.w3.org/1999/xlink" width="3300" height="2200">
 <!--glyph: "uni1002C3.medium", point size: 100.0, font version: "17.0d12e1", template writer version: "65.1"-->
 <style>.multicolor-0:systemYellowColor {fill:#FFCC00;opacity:1.0}

.SFSymbolsPreviewFFCC00 {fill:#FFCC00;opacity:1.0}
</style>
 <g id="Notes">
  <rect height="2200" id="artboard" style="fill:white;opacity:1" width="3300" x="0" y="0"/>
  <line style="fill:none;stroke:black;opacity:1;stroke-width:0.5;" x1="263" x2="3036" y1="292" y2="292"/>
  <text style="stroke:none;fill:black;font-family:sans-serif;font-size:13;font-weight:bold;" transform="matrix(1 0 0 1 263 322)">Weight/Scale Variations</text>
  <text style="stroke:none;fill:black;font-family:sans-serif;font-size:13;text-anchor:middle;" transform="matrix(1 0 0 1 559.711 322)">Ultralight</text>
  <text style="stroke:none;fill:black;font-family:sans-serif;font-size:13;text-anchor:middle;" transform="matrix(1 0 0 1 856.422 322)">Thin</text>
  <text style="stroke:none;fill:black;font-family:sans-serif;font-size:13;text-anchor:middle;" transform="matrix(1 0 0 1 1153.13 322)">Light</text>
  <text style="stroke:none;fill:black;font-family:sans-serif;font-size:13;text-anchor:middle;" transform="matrix(1 0 0 1 1449.84 322)">Regular</text>
  <text style="stroke:none;fill:black;font-family:sans-serif;font-size:13;text-anchor:middle;" transform="matrix(1 0 0 1 1746.56 322)">Medium</text>
  <text style="stroke:none;fill:black;font-family:sans-serif;font-size:13;text-anchor:middle;" transform="matrix(1 0 0 1 2043.27 322)">Semibold</text>
  <text style="stroke:none;fill:black;font-family:sans-serif;font-size:13;text-anchor:middle;" transform="matrix(1 0 0 1 2339.98 322)">Bold</text>
  <text style="stroke:none;fill:black;font-family:sans-serif;font-size:13;text-anchor:middle;" transform="matrix(1 0 0 1 2636.69 322)">Heavy</text>
  <text style="stroke:none;fill:black;font-family:sans-serif;font-size:13;text-anchor:middle;" transform="matrix(1 0 0 1 2933.4 322)">Black</text>
  <line style="fill:none;stroke:black;opacity:1;stroke-width:0.5;" x1="263" x2="3036" y1="1903" y2="1903"/>
  <g transform="matrix(1 0 0 1 263 1933)">
   <path d="M9.24805 0.830078Q10.8691 0.830078 12.2949 0.214844Q13.7207-0.400391 14.8096-1.49414Q15.8984-2.58789 16.5186-4.01367Q17.1387-5.43945 17.1387-7.05078Q17.1387-8.66211 16.5186-10.0879Q15.8984-11.5137 14.8047-12.6074Q13.7109-13.7012 12.2852-14.3164Q10.8594-14.9316 9.23828-14.9316Q7.62695-14.9316 6.20117-14.3164Q4.77539-13.7012 3.69141-12.6074Q2.60742-11.5137 1.9873-10.0879Q1.36719-8.66211 1.36719-7.05078Q1.36719-5.43945 1.9873-4.01367Q2.60742-2.58789 3.69629-1.49414Q4.78516-0.400391 6.21094 0.214844Q7.63672 0.830078 9.24805 0.830078ZM9.24805-0.654297Q7.91992-0.654297 6.7627-1.14746Q5.60547-1.64062 4.73145-2.51953Q3.85742-3.39844 3.36426-4.56055Q2.87109-5.72266 2.87109-7.05078Q2.87109-8.37891 3.35938-9.54102Q3.84766-10.7031 4.72168-11.582Q5.5957-12.4609 6.75293-12.9541Q7.91016-13.4473 9.23828-13.4473Q10.5762-13.4473 11.7334-12.9541Q12.8906-12.4609 13.7695-11.582Q14.6484-10.7031 15.1465-9.54102Q15.6445-8.37891 15.6445-7.05078Q15.6445-5.72266 15.1514-4.56055Q14.6582-3.39844 13.7842-2.51953Q12.9102-1.64062 11.748-1.14746Q10.5859-0.654297 9.24805-0.654297ZM5.6543-7.05078Q5.6543-6.72852 5.85938-6.52832Q6.06445-6.32812 6.40625-6.32812L8.51562-6.32812L8.51562-4.20898Q8.51562-3.88672 8.71094-3.67676Q8.90625-3.4668 9.23828-3.4668Q9.56055-3.4668 9.77051-3.67676Q9.98047-3.88672 9.98047-4.20898L9.98047-6.32812L12.0898-6.32812Q12.4219-6.32812 12.627-6.52832Q12.832-6.72852 12.832-7.05078Q12.832-7.38281 12.627-7.58789Q12.4219-7.79297 12.0898-7.79297L9.98047-7.79297L9.98047-9.90234Q9.98047-10.2344 9.77051-10.4443Q9.56055-10.6543 9.23828-10.6543Q8.90625-10.6543 8.71094-10.4443Q8.51562-10.2344 8.51562-9.90234L8.51562-7.79297L6.40625-7.79297Q6.06445-7.79297 5.85938-7.58789Q5.6543-7.38281 5.6543-7.05078Z"/>
  </g>
  <g transform="matrix(1 0 0 1 281.867 1933)">
   <path d="M11.709 2.91016Q13.75 2.91016 15.5518 2.12891Q17.3535 1.34766 18.7305-0.0292969Q20.1074-1.40625 20.8887-3.20801Q21.6699-5.00977 21.6699-7.05078Q21.6699-9.0918 20.8887-10.8936Q20.1074-12.6953 18.7305-14.0723Q17.3535-15.4492 15.5469-16.2305Q13.7402-17.0117 11.6992-17.0117Q9.6582-17.0117 7.85645-16.2305Q6.05469-15.4492 4.68262-14.0723Q3.31055-12.6953 2.5293-10.8936Q1.74805-9.0918 1.74805-7.05078Q1.74805-5.00977 2.5293-3.20801Q3.31055-1.40625 4.6875-0.0292969Q6.06445 1.34766 7.86621 2.12891Q9.66797 2.91016 11.709 2.91016ZM11.709 1.25Q9.98047 1.25 8.47656 0.605469Q6.97266-0.0390625 5.83496-1.17676Q4.69727-2.31445 4.05762-3.81836Q3.41797-5.32227 3.41797-7.05078Q3.41797-8.7793 4.05762-10.2832Q4.69727-11.7871 5.83008-12.9297Q6.96289-14.0723 8.4668-14.7119Q9.9707-15.3516 11.6992-15.3516Q13.4277-15.3516 14.9316-14.7119Q16.4355-14.0723 17.5781-12.9297Q18.7207-11.7871 19.3652-10.2832Q20.0098-8.7793 20.0098-7.05078Q20.0098-5.32227 19.3701-3.81836Q18.7305-2.31445 17.5928-1.17676Q16.4551-0.0390625 14.9463 0.605469Q13.4375 1.25 11.709 1.25ZM7.17773-7.05078Q7.17773-6.69922 7.41211-6.47461Q7.64648-6.25 8.01758-6.25L10.8887-6.25L10.8887-3.36914Q10.8887-2.99805 11.1133-2.76855Q11.3379-2.53906 11.6895-2.53906Q12.0605-2.53906 12.29-2.76855Q12.5195-2.99805 12.5195-3.36914L12.5195-6.25L15.4004-6.25Q15.7715-6.25 16.001-6.47461Q16.2305-6.69922 16.2305-7.05078Q16.2305-7.42188 16.001-7.65137Q15.7715-7.88086 15.4004-7.88086L12.5195-7.88086L12.5195-10.752Q12.5195-11.1328 12.29-11.3623Q12.0605-11.5918 11.6895-11.5918Q11.3379-11.5918 11.1133-11.3574Q10.8887-11.123 10.8887-10.752L10.8887-7.88086L8.01758-7.88086Q7.63672-7.88086 7.40723-7.65137Q7.17773-7.42188 7.17773-7.05078Z"/>
  </g>
  <g transform="matrix(1 0 0 1 305.646 1933)">
   <path d="M14.9707 5.66406Q17.0605 5.66406 18.96 5.01465Q20.8594 4.36523 22.4512 3.19336Q24.043 2.02148 25.2197 0.429688Q26.3965-1.16211 27.0459-3.06641Q27.6953-4.9707 27.6953-7.05078Q27.6953-9.14062 27.0459-11.04Q26.3965-12.9395 25.2197-14.5312Q24.043-16.123 22.4512-17.2998Q20.8594-18.4766 18.9551-19.126Q17.0508-19.7754 14.9609-19.7754Q12.8711-19.7754 10.9717-19.126Q9.07227-18.4766 7.48535-17.2998Q5.89844-16.123 4.72168-14.5312Q3.54492-12.9395 2.90039-11.04Q2.25586-9.14062 2.25586-7.05078Q2.25586-4.9707 2.90527-3.06641Q3.55469-1.16211 4.72656 0.429688Q5.89844 2.02148 7.49023 3.19336Q9.08203 4.36523 10.9814 5.01465Q12.8809 5.66406 14.9707 5.66406ZM14.9707 3.84766Q13.1641 3.84766 11.5283 3.2959Q9.89258 2.74414 8.53516 1.74805Q7.17773 0.751953 6.17676-0.610352Q5.17578-1.97266 4.62891-3.6084Q4.08203-5.24414 4.08203-7.05078Q4.08203-8.86719 4.62891-10.5029Q5.17578-12.1387 6.17188-13.501Q7.16797-14.8633 8.52539-15.8594Q9.88281-16.8555 11.5186-17.4023Q13.1543-17.9492 14.9609-17.9492Q16.7773-17.9492 18.4131-17.4023Q20.0488-16.8555 21.4111-15.8594Q22.7734-14.8633 23.7695-13.501Q24.7656-12.1387 25.3174-10.5029Q25.8691-8.86719 25.8691-7.05078Q25.8789-5.24414 25.332-3.6084Q24.7852-1.97266 23.7842-0.610352Q22.7832 0.751953 21.4209 1.74805Q20.0586 2.74414 18.4229 3.2959Q16.7871 3.84766 14.9707 3.84766ZM9.19922-7.05078Q9.19922-6.66992 9.45801-6.4209Q9.7168-6.17188 10.1172-6.17188L14.0625-6.17188L14.0625-2.2168Q14.0625-1.81641 14.3115-1.55762Q14.5605-1.29883 14.9512-1.29883Q15.3516-1.29883 15.6104-1.55273Q15.8691-1.80664 15.8691-2.2168L15.8691-6.17188L19.8242-6.17188Q20.2246-6.17188 20.4785-6.4209Q20.7324-6.66992 20.7324-7.05078Q20.7324-7.46094 20.4785-7.71484Q20.2246-7.96875 19.8242-7.96875L15.8691-7.96875L15.8691-11.9141Q15.8691-12.3242 15.6104-12.583Q15.3516-12.8418 14.9512-12.8418Q14.5605-12.8418 14.3115-12.583Q14.0625-12.3242 14.0625-11.9141L14.0625-7.96875L10.1172-7.96875Q9.70703-7.96875 9.45312-7.71484Q9.19922-7.46094 9.19922-7.05078Z"/>
  </g>
  <text style="stroke:none;fill:black;font-family:sans-serif;font-size:13;font-weight:bold;" transform="matrix(1 0 0 1 263 1953)">Design Variations</text>
  <text style="stroke:none;fill:black;font-family:sans-serif;font-size:13;" transform="matrix(1 0 0 1 263 1971)">Symbols are supported in up to nine weights and three scales.</text>
  <text style="stroke:none;fill:black;font-family:sans-serif;font-size:13;" transform="matrix(1 0 0 1 263 1989)">For optimal layout with text and other symbols, vertically align</text>
  <text style="stroke:none;fill:black;font-family:sans-serif;font-size:13;" transform="matrix(1 0 0 1 263 2007)">symbols with the adjacent text.</text>
  <line style="fill:none;stroke:#00AEEF;stroke-width:0.5;opacity:1.0;" x1="776" x2="776" y1="1919" y2="1933"/>
  <g transform="matrix(1 0 0 1 776 1933)">
   <path d="M3.31055 0.15625Q3.70117 0.15625 3.91602-0.00976562Q4.13086-0.175781 4.26758-0.585938L5.52734-4.0332L11.2891-4.0332L12.5488-0.585938Q12.6855-0.175781 12.9004-0.00976562Q13.1152 0.15625 13.4961 0.15625Q13.8867 0.15625 14.1162-0.0585938Q14.3457-0.273438 14.3457-0.644531Q14.3457-0.869141 14.2383-1.17188L9.6582-13.3691Q9.48242-13.8184 9.17969-14.043Q8.87695-14.2676 8.4082-14.2676Q7.5-14.2676 7.17773-13.3789L2.59766-1.16211Q2.49023-0.859375 2.49023-0.634766Q2.49023-0.263672 2.70996-0.0537109Q2.92969 0.15625 3.31055 0.15625ZM6.00586-5.51758L8.37891-12.0898L8.42773-12.0898L10.8008-5.51758Z"/>
  </g>
  <line style="fill:none;stroke:#00AEEF;stroke-width:0.5;opacity:1.0;" x1="793.197" x2="793.197" y1="1919" y2="1933"/>
  <text style="stroke:none;fill:black;font-family:sans-serif;font-size:13;font-weight:bold;" transform="matrix(1 0 0 1 776 1953)">Margins</text>
  <text style="stroke:none;fill:black;font-family:sans-serif;font-size:13;" transform="matrix(1 0 0 1 776 1971)">Leading and trailing margins on the left and right side of each symbol</text>
  <text style="stroke:none;fill:black;font-family:sans-serif;font-size:13;" transform="matrix(1 0 0 1 776 1989)">can be adjusted by modifying the x-location of the margin guidelines.</text>
  <text style="stroke:none;fill:black;font-family:sans-serif;font-size:13;" transform="matrix(1 0 0 1 776 2007)">Modifications are automatically applied proportionally to all</text>
  <text style="stroke:none;fill:black;font-family:sans-serif;font-size:13;" transform="matrix(1 0 0 1 776 2025)">scales and weights.</text>
  <g transform="matrix(1 0 0 1 1289 1933)">
   <path d="M2.8418 1.86523L4.54102 3.57422Q5.18555 4.22852 5.90332 4.17969Q6.62109 4.13086 7.31445 3.35938L18.0078-8.42773L17.041-9.4043L6.42578 2.27539Q6.16211 2.57812 5.89355 2.61719Q5.625 2.65625 5.27344 2.30469L4.10156 1.14258Q3.75 0.791016 3.79395 0.522461Q3.83789 0.253906 4.14062-0.0195312L15.6152-10.8203L14.6387-11.7871L3.04688-0.898438Q2.30469-0.214844 2.25098 0.498047Q2.19727 1.21094 2.8418 1.86523ZM9.25781-16.3281Q8.94531-16.0254 8.90625-15.6348Q8.86719-15.2441 9.04297-14.9512Q9.21875-14.6777 9.55566-14.541Q9.89258-14.4043 10.3809-14.5215Q11.4746-14.7754 12.5977-14.7314Q13.7207-14.6875 14.7949-13.9844L14.209-12.5293Q13.9551-11.9043 14.0674-11.4404Q14.1797-10.9766 14.5801-10.5664L16.875-8.25195Q17.2363-7.88086 17.5781-7.82227Q17.9199-7.76367 18.3398-7.8418L19.4043-8.03711L20.0684-7.36328L20.0293-6.80664Q20-6.43555 20.1221-6.12305Q20.2441-5.81055 20.6055-5.44922L21.3672-4.70703Q21.7285-4.3457 22.1533-4.33105Q22.5781-4.31641 22.9297-4.66797L25.8398-7.58789Q26.1914-7.93945 26.1816-8.35449Q26.1719-8.76953 25.8105-9.13086L25.0391-9.89258Q24.6875-10.2539 24.3799-10.3857Q24.0723-10.5176 23.7109-10.4883L23.1348-10.4395L22.4902-11.0742L22.7344-12.1973Q22.832-12.6172 22.6953-12.9834Q22.5586-13.3496 22.1191-13.7891L19.9219-15.9766Q18.6719-17.2168 17.2607-17.8369Q15.8496-18.457 14.4189-18.4814Q12.9883-18.5059 11.665-17.959Q10.3418-17.4121 9.25781-16.3281ZM10.752-15.957Q11.6602-16.6211 12.7002-16.9043Q13.7402-17.1875 14.8047-17.085Q15.8691-16.9824 16.8701-16.5137Q17.8711-16.0449 18.7012-15.2051L21.1328-12.793Q21.3086-12.6172 21.3525-12.4512Q21.3965-12.2852 21.3379-12.0312L21.0156-10.5469L22.5195-9.0625L23.5059-9.12109Q23.6914-9.13086 23.7891-9.09668Q23.8867-9.0625 24.0332-8.91602L24.6094-8.33984L22.168-5.89844L21.5918-6.47461Q21.4453-6.62109 21.4062-6.71875Q21.3672-6.81641 21.377-7.01172L21.4453-7.98828L19.9512-9.47266L18.4277-9.21875Q18.1836-9.16992 18.042-9.2041Q17.9004-9.23828 17.7148-9.41406L15.7129-11.416Q15.5176-11.5918 15.4932-11.7529Q15.4688-11.9141 15.5859-12.1875L16.4648-14.2773Q15.293-15.3711 13.8281-15.791Q12.3633-16.2109 10.8398-15.7617Q10.7227-15.7324 10.6885-15.8057Q10.6543-15.8789 10.752-15.957Z"/>
  </g>
  <text style="stroke:none;fill:black;font-family:sans-serif;font-size:13;font-weight:bold;" transform="matrix(1 0 0 1 1289 1953)">Exporting</text>
  <text style="stroke:none;fill:black;font-family:sans-serif;font-size:13;" transform="matrix(1 0 0 1 1289 1971)">Symbols should be outlined when exporting to ensure the</text>
  <text style="stroke:none;fill:black;font-family:sans-serif;font-size:13;" transform="matrix(1 0 0 1 1289 1989)">design is preserved when submitting to Xcode.</text>
  <text id="template-version" style="stroke:none;fill:black;font-family:sans-serif;font-size:13;text-anchor:end;" transform="matrix(1 0 0 1 3036 1933)">Template v.3.0</text>
  <text style="stroke:none;fill:black;font-family:sans-serif;font-size:13;text-anchor:end;" transform="matrix(1 0 0 1 3036 1951)">Requires Xcode 13 or greater</text>
  <text id="descriptive-name" style="stroke:none;fill:black;font-family:sans-serif;font-size:13;text-anchor:end;" transform="matrix(1 0 0 1 3036 1969)">Generated from star.fill</text>
  <text style="stroke:none;fill:black;font-family:sans-serif;font-size:13;text-anchor:end;" transform="matrix(1 0 0 1 3036 1987)">Typeset at 100 points</text>
  <text style="stroke:none;fill:black;font-family:sans-serif;font-size:13;" transform="matrix(1 0 0 1 263 726)">Small</text>
  <text style="stroke:none;fill:black;font-family:sans-serif;font-size:13;" transform="matrix(1 0 0 1 263 1156)">Medium</text>
  <text style="stroke:none;fill:black;font-family:sans-serif;font-size:13;" transform="matrix(1 0 0 1 263 1586)">Large</text>
 </g>
 <g id="Guides">
  <g id="H-reference" style="fill:#27AAE1;stroke:none;" transform="matrix(1 0 0 1 339 696)">
   <path d="M0.993347 0L3.6377 0L29.3282-67.1326L30.0301-67.1326L30.0301-70.459L28.1227-70.459ZM11.6882-24.4797L46.9818-24.4797L46.2311-26.7288L12.4382-26.7288ZM55.1193 0L57.7637 0L30.6381-70.459L29.4327-70.459L29.4327-67.1326Z"/>
  </g>
  <line id="Baseline-S" style="fill:none;stroke:#27AAE1;opacity:1;stroke-width:0.5;" x1="263" x2="3036" y1="696" y2="696"/>
  <line id="Capline-S" style="fill:none;stroke:#27AAE1;opacity:1;stroke-width:0.5;" x1="263" x2="3036" y1="625.541" y2="625.541"/>
  <g id="H-reference" style="fill:#27AAE1;stroke:none;" transform="matrix(1 0 0 1 339 1126)">
   <path d="M0.993347 0L3.6377 0L29.3282-67.1326L30.0301-67.1326L30.0301-70.459L28.1227-70.459ZM11.6882-24.4797L46.9818-24.4797L46.2311-26.7288L12.4382-26.7288ZM55.1193 0L57.7637 0L30.6381-70.459L29.4327-70.459L29.4327-67.1326Z"/>
  </g>
  <line id="Baseline-M" style="fill:none;stroke:#27AAE1;opacity:1;stroke-width:0.5;" x1="263" x2="3036" y1="1126" y2="1126"/>
  <line id="Capline-M" style="fill:none;stroke:#27AAE1;opacity:1;stroke-width:0.5;" x1="263" x2="3036" y1="1055.54" y2="1055.54"/>
  <g id="H-reference" style="fill:#27AAE1;stroke:none;" transform="matrix(1 0 0 1 339 1556)">
   <path d="M0.993347 0L3.6377 0L29.3282-67.1326L30.0301-67.1326L30.0301-70.459L28.1227-70.459ZM11.6882-24.4797L46.9818-24.4797L46.2311-26.7288L12.4382-26.7288ZM55.1193 0L57.7637 0L30.6381-70.459L29.4327-70.459L29.4327-67.1326Z"/>
  </g>
  <line id="Baseline-L" style="fill:none;stroke:#27AAE1;opacity:1;stroke-width:0.5;" x1="263" x2="3036" y1="1556" y2="1556"/>
  <line id="Capline-L" style="fill:none;stroke:#27AAE1;opacity:1;stroke-width:0.5;" x1="263" x2="3036" y1="1485.54" y2="1485.54"/>
  <line id="left-margin-Ultralight-S" style="fill:none;stroke:#00AEEF;stroke-width:0.5;opacity:1.0;" x1="511.632" x2="511.632" y1="600.785" y2="720.121"/>
  <line id="right-margin-Ultralight-S" style="fill:none;stroke:#00AEEF;stroke-width:0.5;opacity:1.0;" x1="607.79" x2="607.79" y1="600.785" y2="720.121"/>
  <line id="left-margin-Thin-S" style="fill:none;stroke:#00AEEF;stroke-width:0.5;opacity:1.0;" x1="807.733" x2="807.733" y1="600.785" y2="720.121"/>
  <line id="right-margin-Thin-S" style="fill:none;stroke:#00AEEF;stroke-width:0.5;opacity:1.0;" x1="905.112" x2="905.112" y1="600.785" y2="720.121"/>
  <line id="left-margin-Light-S" style="fill:none;stroke:#00AEEF;stroke-width:0.5;opacity:1.0;" x1="1103.25" x2="1103.25" y1="600.785" y2="720.121"/>
  <line id="right-margin-Light-S" style="fill:none;stroke:#00AEEF;stroke-width:0.5;opacity:1.0;" x1="1203.01" x2="1203.01" y1="600.785" y2="720.121"/>
  <line id="left-margin-Regular-S" style="fill:none;stroke:#00AEEF;stroke-width:0.5;opacity:1.0;" x1="1399.06" x2="1399.06" y1="600.785" y2="720.121"/>
  <line id="right-margin-Regular-S" style="fill:none;stroke:#00AEEF;stroke-width:0.5;opacity:1.0;" x1="1500.63" x2="1500.63" y1="600.785" y2="720.121"/>
  <line id="left-margin-Medium-S" style="fill:none;stroke:#00AEEF;stroke-width:0.5;opacity:1.0;" x1="1695.26" x2="1695.26" y1="600.785" y2="720.121"/>
  <line id="right-margin-Medium-S" style="fill:none;stroke:#00AEEF;stroke-width:0.5;opacity:1.0;" x1="1797.86" x2="1797.86" y1="600.785" y2="720.121"/>
  <line id="left-margin-Semibold-S" style="fill:none;stroke:#00AEEF;stroke-width:0.5;opacity:1.0;" x1="1991.57" x2="1991.57" y1="600.785" y2="720.121"/>
  <line id="right-margin-Semibold-S" style="fill:none;stroke:#00AEEF;stroke-width:0.5;opacity:1.0;" x1="2094.96" x2="2094.96" y1="600.785" y2="720.121"/>
  <line id="left-margin-Bold-S" style="fill:none;stroke:#00AEEF;stroke-width:0.5;opacity:1.0;" x1="2287.76" x2="2287.76" y1="600.785" y2="720.121"/>
  <line id="right-margin-Bold-S" style="fill:none;stroke:#00AEEF;stroke-width:0.5;opacity:1.0;" x1="2392.2" x2="2392.2" y1="600.785" y2="720.121"/>
  <line id="left-margin-Heavy-S" style="fill:none;stroke:#00AEEF;stroke-width:0.5;opacity:1.0;" x1="2583.71" x2="2583.71" y1="600.785" y2="720.121"/>
  <line id="right-margin-Heavy-S" style="fill:none;stroke:#00AEEF;stroke-width:0.5;opacity:1.0;" x1="2689.67" x2="2689.67" y1="600.785" y2="720.121"/>
  <line id="left-margin-Black-S" style="fill:none;stroke:#00AEEF;stroke-width:0.5;opacity:1.0;" x1="2879.74" x2="2879.74" y1="600.785" y2="720.121"/>
  <line id="right-margin-Black-S" style="fill:none;stroke:#00AEEF;stroke-width:0.5;opacity:1.0;" x1="2987.06" x2="2987.06" y1="600.785" y2="720.121"/>
  <line id="left-margin-Ultralight-M" style="fill:none;stroke:#00AEEF;stroke-width:0.5;opacity:1.0;" x1="498.546" x2="498.546" y1="1030.79" y2="1150.12"/>
  <line id="right-margin-Ultralight-M" style="fill:none;stroke:#00AEEF;stroke-width:0.5;opacity:1.0;" x1="620.876" x2="620.876" y1="1030.79" y2="1150.12"/>
  <line id="left-margin-Thin-M" style="fill:none;stroke:#00AEEF;stroke-width:0.5;opacity:1.0;" x1="794.575" x2="794.575" y1="1030.79" y2="1150.12"/>
  <line id="right-margin-Thin-M" style="fill:none;stroke:#00AEEF;stroke-width:0.5;opacity:1.0;" x1="918.269" x2="918.269" y1="1030.79" y2="1150.12"/>
  <line id="left-margin-Light-M" style="fill:none;stroke:#00AEEF;stroke-width:0.5;opacity:1.0;" x1="1089.96" x2="1089.96" y1="1030.79" y2="1150.12"/>
  <line id="right-margin-Light-M" style="fill:none;stroke:#00AEEF;stroke-width:0.5;opacity:1.0;" x1="1216.31" x2="1216.31" y1="1030.79" y2="1150.12"/>
  <line id="left-margin-Regular-M" style="fill:none;stroke:#00AEEF;stroke-width:0.5;opacity:1.0;" x1="1385.66" x2="1385.66" y1="1030.79" y2="1150.12"/>
  <line id="right-margin-Regular-M" style="fill:none;stroke:#00AEEF;stroke-width:0.5;opacity:1.0;" x1="1514.03" x2="1514.03" y1="1030.79" y2="1150.12"/>
  <line id="left-margin-Medium-M" style="fill:none;stroke:#00AEEF;stroke-width:0.5;opacity:1.0;" x1="1681.65" x2="1681.65" y1="1030.79" y2="1150.12"/>
  <line id="right-margin-Medium-M" style="fill:none;stroke:#00AEEF;stroke-width:0.5;opacity:1.0;" x1="1811.46" x2="1811.46" y1="1030.79" y2="1150.12"/>
  <line id="left-margin-Semibold-M" style="fill:none;stroke:#00AEEF;stroke-width:0.5;opacity:1.0;" x1="1977.81" x2="1977.81" y1="1030.79" y2="1150.12"/>
  <line id="right-margin-Semibold-M" style="fill:none;stroke:#00AEEF;stroke-width:0.5;opacity:1.0;" x1="2108.72" x2="2108.72" y1="1030.79" y2="1150.12"/>
  <line id="left-margin-Bold-M" style="fill:none;stroke:#00AEEF;stroke-width:0.5;opacity:1.0;" x1="2273.79" x2="2273.79" y1="1030.79" y2="1150.12"/>
  <line id="right-margin-Bold-M" style="fill:none;stroke:#00AEEF;stroke-width:0.5;opacity:1.0;" x1="2406.16" x2="2406.16" y1="1030.79" y2="1150.12"/>
  <line id="left-margin-Heavy-M" style="fill:none;stroke:#00AEEF;stroke-width:0.5;opacity:1.0;" x1="2569.45" x2="2569.45" y1="1030.79" y2="1150.12"/>
  <line id="right-margin-Heavy-M" style="fill:none;stroke:#00AEEF;stroke-width:0.5;opacity:1.0;" x1="2703.93" x2="2703.93" y1="1030.79" y2="1150.12"/>
  <line id="left-margin-Black-M" style="fill:none;stroke:#00AEEF;stroke-width:0.5;opacity:1.0;" x1="2865.21" x2="2865.21" y1="1030.79" y2="1150.12"/>
  <line id="right-margin-Black-M" style="fill:none;stroke:#00AEEF;stroke-width:0.5;opacity:1.0;" x1="3001.59" x2="3001.59" y1="1030.79" y2="1150.12"/>
  <line id="left-margin-Ultralight-L" style="fill:none;stroke:#00AEEF;stroke-width:0.5;opacity:1.0;" x1="481.112" x2="481.112" y1="1460.79" y2="1580.12"/>
  <line id="right-margin-Ultralight-L" style="fill:none;stroke:#00AEEF;stroke-width:0.5;opacity:1.0;" x1="638.311" x2="638.311" y1="1460.79" y2="1580.12"/>
  <line id="left-margin-Thin-L" style="fill:none;stroke:#00AEEF;stroke-width:0.5;opacity:1.0;" x1="777.059" x2="777.059" y1="1460.79" y2="1580.12"/>
  <line id="right-margin-Thin-L" style="fill:none;stroke:#00AEEF;stroke-width:0.5;opacity:1.0;" x1="935.786" x2="935.786" y1="1460.79" y2="1580.12"/>
  <line id="left-margin-Light-L" style="fill:none;stroke:#00AEEF;stroke-width:0.5;opacity:1.0;" x1="1072.28" x2="1072.28" y1="1460.79" y2="1580.12"/>
  <line id="right-margin-Light-L" style="fill:none;stroke:#00AEEF;stroke-width:0.5;opacity:1.0;" x1="1233.99" x2="1233.99" y1="1460.79" y2="1580.12"/>
  <line id="left-margin-Regular-L" style="fill:none;stroke:#00AEEF;stroke-width:0.5;opacity:1.0;" x1="1367.86" x2="1367.86" y1="1460.79" y2="1580.12"/>
  <line id="right-margin-Regular-L" style="fill:none;stroke:#00AEEF;stroke-width:0.5;opacity:1.0;" x1="1531.83" x2="1531.83" y1="1460.79" y2="1580.12"/>
  <line id="left-margin-Medium-L" style="fill:none;stroke:#00AEEF;stroke-width:0.5;opacity:1.0;" x1="1663.64" x2="1663.64" y1="1460.79" y2="1580.12"/>
  <line id="right-margin-Medium-L" style="fill:none;stroke:#00AEEF;stroke-width:0.5;opacity:1.0;" x1="1829.47" x2="1829.47" y1="1460.79" y2="1580.12"/>
  <line id="left-margin-Semibold-L" style="fill:none;stroke:#00AEEF;stroke-width:0.5;opacity:1.0;" x1="1959.64" x2="1959.64" y1="1460.79" y2="1580.12"/>
  <line id="right-margin-Semibold-L" style="fill:none;stroke:#00AEEF;stroke-width:0.5;opacity:1.0;" x1="2126.89" x2="2126.89" y1="1460.79" y2="1580.12"/>
  <line id="left-margin-Bold-L" style="fill:none;stroke:#00AEEF;stroke-width:0.5;opacity:1.0;" x1="2255.41" x2="2255.41" y1="1460.79" y2="1580.12"/>
  <line id="right-margin-Bold-L" style="fill:none;stroke:#00AEEF;stroke-width:0.5;opacity:1.0;" x1="2424.55" x2="2424.55" y1="1460.79" y2="1580.12"/>
  <line id="left-margin-Heavy-L" style="fill:none;stroke:#00AEEF;stroke-width:0.5;opacity:1.0;" x1="2550.75" x2="2550.75" y1="1460.79" y2="1580.12"/>
  <line id="right-margin-Heavy-L" style="fill:none;stroke:#00AEEF;stroke-width:0.5;opacity:1.0;" x1="2722.63" x2="2722.63" y1="1460.79" y2="1580.12"/>
  <line id="left-margin-Black-L" style="fill:none;stroke:#00AEEF;stroke-width:0.5;opacity:1.0;" x1="2846.24" x2="2846.24" y1="1460.79" y2="1580.12"/>
  <line id="right-margin-Black-L" style="fill:none;stroke:#00AEEF;stroke-width:0.5;opacity:1.0;" x1="3020.56" x2="3020.56" y1="1460.79" y2="1580.12"/>
 </g>
 <g id="Symbols">
  <g id="Black-L" transform="matrix(1 0 0 1 2846.24 1556)">
   <path class="multicolor-0:systemYellowColor SFSymbolsPreviewFFCC00" d="M41.4062 28.418Q44.6289 30.8594 48.4863 30.2979Q52.3438 29.7363 56.4941 26.6602L87.1582 4.10156L117.822 26.6602Q122.021 29.7363 125.879 30.2979Q129.736 30.8594 132.959 28.418Q136.084 26.0254 136.768 22.1924Q137.451 18.3594 135.84 13.623L123.633-22.3633L154.59-44.5312Q158.74-47.5098 160.474-51.001Q162.207-54.4922 160.889-58.3008Q159.619-62.0605 156.177-63.8916Q152.734-65.7227 147.656-65.6738L109.766-65.332L98.2422-101.611Q96.6797-106.543 93.9209-109.229Q91.1621-111.914 87.1582-111.914Q83.2031-111.914 80.4443-109.229Q77.6855-106.543 76.123-101.611L64.5996-65.332L26.6113-65.6738Q21.582-65.7227 18.1641-63.916Q14.7461-62.1094 13.4766-58.3496Q12.1094-54.4922 13.8672-51.001Q15.625-47.5098 19.7754-44.5312L50.7324-22.3633L38.5254 13.623Q36.9141 18.3594 37.5977 22.1924Q38.2812 26.0254 41.4062 28.418Z"/>
  </g>
  <g id="Heavy-L" transform="matrix(1 0 0 1 2550.75 1556)">
   <path class="multicolor-0:systemYellowColor SFSymbolsPreviewFFCC00" d="M40.9225 27.7031Q43.7874 29.8683 47.2416 29.353Q50.6958 28.8376 54.4891 26.0376L85.9367 2.92587L117.373 26.0376Q121.204 28.8376 124.657 29.353Q128.111 29.8683 130.988 27.7031Q133.768 25.576 134.382 22.1405Q134.997 18.705 133.512 14.3608L121.04-22.5594L152.769-45.3033Q156.562-48.0171 158.123-51.1452Q159.683-54.2732 158.514-57.6668Q157.384-61.0115 154.298-62.6526Q151.213-64.2937 146.561-64.2448L107.691-63.9259L95.8679-101.115Q94.4321-105.609 91.9674-108.024Q89.5027-110.439 85.9367-110.439Q82.4081-110.439 79.9374-108.024Q77.4666-105.609 76.0422-101.115L64.2075-63.9259L25.2632-64.2448Q20.6604-64.2937 17.588-62.6713Q14.5157-61.0489 13.3957-57.7042Q12.1902-54.2732 13.7691-51.1452Q15.3481-48.0171 19.1299-45.3033L50.8591-22.5594L38.3873 14.3608Q36.9141 18.705 37.5229 22.1405Q38.1317 25.576 40.9225 27.7031Z"/>
  </g>
  <g id="Bold-L" transform="matrix(1 0 0 1 2255.41 1556)">
   <path class="multicolor-0:systemYellowColor SFSymbolsPreviewFFCC00" d="M40.3809 26.9043Q42.8467 28.7598 45.8496 28.2959Q48.8525 27.832 52.2461 25.3418L84.5703 1.61133L116.87 25.3418Q120.288 27.832 123.291 28.2959Q126.294 28.7598 128.784 26.9043Q131.177 25.0732 131.714 22.0825Q132.251 19.0918 130.908 15.1855L118.14-22.7783L150.732-46.167Q154.126-48.584 155.493-51.3062Q156.86-54.0283 155.859-56.958Q154.883-59.8389 152.197-61.2671Q149.512-62.6953 145.337-62.6465L105.371-62.3535L93.2129-100.562Q91.9189-104.565 89.7827-106.677Q87.6465-108.789 84.5703-108.789Q81.5186-108.789 79.3701-106.677Q77.2217-104.565 75.9521-100.562L63.7695-62.3535L23.7549-62.6465Q19.6289-62.6953 16.9434-61.2793Q14.2578-59.8633 13.3057-56.9824Q12.2803-54.0283 13.6597-51.3062Q15.0391-48.584 18.4082-46.167L51.001-22.7783L38.2324 15.1855Q36.9141 19.0918 37.439 22.0825Q37.9639 25.0732 40.3809 26.9043Z"/>
  </g>
  <g id="Semibold-L" transform="matrix(1 0 0 1 1959.64 1556)">
   <path class="multicolor-0:systemYellowColor SFSymbolsPreviewFFCC00" d="M40.0078 26.3535Q42.1982 27.9953 44.8898 27.5669Q47.5815 27.1385 50.6996 24.8619L83.6281 0.704956L116.524 24.8619Q119.657 27.1385 122.349 27.5669Q125.041 27.9953 127.264 26.3535Q129.391 24.7269 129.874 22.0425Q130.358 19.3581 129.113 15.7547L116.14-22.9294L149.329-46.7621Q152.446-48.9754 153.68-51.4175Q154.914-53.8597 154.028-56.469Q153.159-59.0302 150.748-60.3119Q148.338-61.5936 144.492-61.5448L103.771-61.2694L91.3818-100.179Q90.1863-103.845 88.2767-105.748Q86.367-107.652 83.6281-107.652Q80.9052-107.652 78.9791-105.748Q77.0531-103.845 75.8896-100.179L63.4674-61.2694L22.715-61.5448Q18.9178-61.5936 16.4989-60.3195Q14.08-59.0454 13.2431-56.485Q12.3428-53.8597 13.5841-51.4175Q14.8254-48.9754 17.9108-46.7621L51.0986-22.9294L38.1256 15.7547Q36.9141 19.3581 37.3814 22.0425Q37.8487 24.7269 40.0078 26.3535Z"/>
  </g>
  <g id="Medium-L" transform="matrix(1 0 0 1 1663.64 1556)">
   <path class="multicolor-0:systemYellowColor SFSymbolsPreviewFFCC00" d="M39.7247 25.9354Q41.7061 27.4162 44.162 27.0149Q46.6179 26.6136 49.527 24.498L82.914 0.0175476L116.261 24.498Q119.179 26.6136 121.635 27.0149Q124.091 27.4162 126.112 25.9354Q128.036 24.4637 128.479 22.0119Q128.923 19.5602 127.752 16.1858L114.624-23.0438L148.264-47.2137Q151.173-49.2714 152.306-51.5015Q153.439-53.7315 152.641-56.0989Q151.852-58.4167 149.651-59.5871Q147.449-60.7574 143.852-60.7086L102.559-60.4469L89.994-99.8894Q88.8718-103.3 87.1342-105.045Q85.3966-106.789 82.914-106.789Q80.4405-106.789 78.6827-105.045Q76.9249-103.3 75.843-99.8894L63.2385-60.4469L21.9269-60.7086Q18.3792-60.7574 16.1621-59.5917Q13.945-58.4259 13.1966-56.1073Q12.3894-53.7315 13.5265-51.5015Q14.6637-49.2714 17.5331-47.2137L51.1726-23.0438L38.0447 16.1858Q36.9141 19.5602 37.3375 22.0119Q37.7609 24.4637 39.7247 25.9354Z"/>
  </g>
  <g id="Regular-L" transform="matrix(1 0 0 1 1367.86 1556)">
   <path class="multicolor-0:systemYellowColor SFSymbolsPreviewFFCC00" d="M39.3555 25.3906Q41.0645 26.6602 43.2129 26.2939Q45.3613 25.9277 47.998 24.0234L81.9824-0.878906L115.918 24.0234Q118.555 25.9277 120.703 26.2939Q122.852 26.6602 124.609 25.3906Q126.27 24.1211 126.66 21.9727Q127.051 19.8242 125.977 16.748L112.646-23.1934L146.875-47.8027Q149.512-49.6582 150.513-51.6113Q151.514-53.5645 150.83-55.6152Q150.146-57.6172 148.218-58.6426Q146.289-59.668 143.018-59.6191L100.977-59.375L88.1836-99.5117Q87.1582-102.588 85.6445-104.126Q84.1309-105.664 81.9824-105.664Q79.834-105.664 78.2959-104.126Q76.7578-102.588 75.7812-99.5117L62.9395-59.375L20.8984-59.6191Q17.6758-59.668 15.7227-58.6426Q13.7695-57.6172 13.1348-55.6152Q12.4512-53.5645 13.4521-51.6113Q14.4531-49.6582 17.041-47.8027L51.2695-23.1934L37.9395 16.748Q36.9141 19.8242 37.2803 21.9727Q37.6465 24.1211 39.3555 25.3906Z"/>
  </g>
  <g id="Light-L" transform="matrix(1 0 0 1 1072.28 1556)">
   <path class="multicolor-0:systemYellowColor SFSymbolsPreviewFFCC00" d="M38.9465 24.5735Q40.3381 25.5852 42.0853 25.325Q43.8324 25.0648 46.0457 23.4787L80.8624-2.01416L115.63 23.4787Q117.844 25.0648 119.591 25.325Q121.338 25.5852 122.763 24.5735Q124.105 23.5458 124.458 21.806Q124.811 20.0661 123.918 17.4446L110.361-23.4657L145.392-48.7106Q147.604-50.2785 148.378-51.8837Q149.152-53.4889 148.62-55.1308Q148.073-56.7543 146.515-57.6206Q144.957-58.4869 142.185-58.4534L99.115-58.2703L85.9734-99.3454Q85.0998-101.937 83.8432-103.165Q82.5867-104.392 80.8624-104.392Q79.1229-104.392 77.8496-103.165Q76.5762-101.937 75.7355-99.3454L62.561-58.2703L19.4908-58.4534Q16.7526-58.4869 15.1779-57.6206Q13.6032-56.7543 13.089-55.1308Q12.5572-53.4889 13.3312-51.8837Q14.1052-50.2785 16.2842-48.7106L51.3153-23.4657L37.7579 17.4446Q36.8988 20.0661 37.2349 21.806Q37.571 23.5458 38.9465 24.5735Z"/>
  </g>
  <g id="Thin-L" transform="matrix(1 0 0 1 777.059 1556)">
   <path class="multicolor-0:systemYellowColor SFSymbolsPreviewFFCC00" d="M38.4064 23.4924Q39.3768 24.1638 40.5937 24.044Q41.8106 23.9243 43.4631 22.7577L79.3808-3.51562L115.25 22.7577Q116.902 23.9243 118.119 24.044Q119.336 24.1638 120.32 23.4924Q121.243 22.7852 121.545 21.5858Q121.848 20.3865 121.195 18.3655L107.338-23.8258L143.43-49.9123Q145.082-51.0994 145.556-52.2442Q146.03-53.389 145.698-54.4907Q145.33-55.6137 144.263-56.2698Q143.195-56.926 141.084-56.9122L96.6522-56.8085L83.0513-99.1249Q82.3769-101.077 81.461-101.894Q80.545-102.711 79.3808-102.711Q78.1815-102.711 77.2587-101.894Q76.3359-101.077 75.676-99.1249L62.0605-56.8085L17.6292-56.9122Q15.5312-56.926 14.4569-56.2698Q13.3827-55.6137 13.0295-54.4907Q12.6976-53.389 13.171-52.2442Q13.6444-51.0994 15.2832-49.9123L51.3748-23.8258L37.5175 18.3655Q36.879 20.3865 37.175 21.5858Q37.471 22.7852 38.4064 23.4924Z"/>
  </g>
  <g id="Ultralight-L" transform="matrix(1 0 0 1 481.112 1556)">
   <path class="multicolor-0:systemYellowColor SFSymbolsPreviewFFCC00" d="M38.1294 22.9385Q38.8847 23.436 39.83 23.3875Q40.7753 23.3391 42.1402 22.3885L78.6224-4.28467L115.055 22.3885Q116.421 23.3391 117.366 23.3875Q118.311 23.436 119.07 22.9385Q119.776 22.3953 120.053 21.4729Q120.33 20.5505 119.801 18.837L105.79-24.0105L142.425-50.5272Q143.79-51.5198 144.11-52.4284Q144.43-53.3371 144.2-54.1618Q143.925-55.0285 143.109-55.5771Q142.293-56.1256 140.52-56.1226L95.3911-56.06L81.5536-99.012Q80.9822-100.636 80.2406-101.242Q79.4991-101.849 78.6224-101.849Q77.7-101.849 76.9566-101.242Q76.2131-100.636 75.6447-99.012L61.8042-56.06L16.6756-56.1226Q14.9055-56.1256 14.0877-55.5771Q13.2698-55.0285 12.9982-54.1618Q12.7693-53.3371 13.089-52.4284Q13.4087-51.5198 14.7705-50.5272L51.4061-24.0105L37.3947 18.837Q36.8683 20.5505 37.1437 21.4729Q37.4191 22.3953 38.1294 22.9385Z"/>
  </g>
  <g id="Black-M" transform="matrix(1 0 0 1 2865.21 1126)">
   <path class="multicolor-0:systemYellowColor SFSymbolsPreviewFFCC00" d="M32.3242 14.4531Q35.0098 16.5039 38.208 16.04Q41.4062 15.5762 44.7754 13.0859L68.2129-4.15039L91.5527 13.0859Q94.9707 15.5762 98.1689 16.04Q101.367 16.5039 104.053 14.4531Q106.689 12.4512 107.251 9.27734Q107.812 6.10352 106.494 2.24609L97.2168-25.1953L120.801-42.0898Q124.219-44.5312 125.635-47.4121Q127.051-50.293 125.928-53.4668Q124.854-56.6406 122.021-58.1543Q119.189-59.668 115.088-59.6191L86.1816-59.375L77.3926-87.0605Q76.123-91.0645 73.8037-93.2617Q71.4844-95.459 68.2129-95.459Q64.8926-95.459 62.5732-93.2617Q60.2539-91.0645 58.9844-87.0605L50.1953-59.375L21.2402-59.6191Q17.1875-59.668 14.3555-58.1543Q11.5234-56.6406 10.4492-53.5156Q9.32617-50.3418 10.7666-47.4365Q12.207-44.5312 15.5762-42.0898L39.1602-25.1953L29.8828 2.24609Q28.5645 6.10352 29.1504 9.27734Q29.7363 12.4512 32.3242 14.4531Z"/>
  </g>
  <g id="Heavy-M" transform="matrix(1 0 0 1 2569.45 1126)">
   <path class="multicolor-0:systemYellowColor SFSymbolsPreviewFFCC00" d="M31.9557 13.9229Q34.3643 15.7661 37.2574 15.3255Q40.1505 14.8849 43.2541 12.6022L67.2562-5.04913L91.1957 12.6022Q94.3367 14.8849 97.2298 15.3255Q100.123 15.7661 102.531 13.9229Q104.903 12.1284 105.407 9.25446Q105.911 6.38046 104.684 2.81067L95.1881-25.322L119.36-42.6544Q122.513-44.8997 123.802-47.504Q125.092-50.1083 124.095-52.9594Q123.136-55.7991 120.569-57.1632Q118.002-58.5274 114.201-58.4785L84.568-58.2458L75.56-86.5997Q74.3828-90.2924 72.2939-92.2935Q70.2049-94.2947 67.2562-94.2947Q64.2815-94.2947 62.1929-92.2935Q60.1044-90.2924 58.9264-86.5997L49.9184-58.2458L20.2492-58.4785Q16.4848-58.5274 13.9175-57.1632Q11.3503-55.7991 10.3912-52.9968Q9.3956-50.1457 10.7033-47.5227Q12.011-44.8997 15.1268-42.6544L39.2982-25.322L29.8019 2.81067Q28.5759 6.38046 29.0985 9.25446Q29.6211 12.1284 31.9557 13.9229Z"/>
  </g>
  <g id="Bold-M" transform="matrix(1 0 0 1 2273.79 1126)">
   <path class="multicolor-0:systemYellowColor SFSymbolsPreviewFFCC00" d="M31.543 13.3301Q33.6426 14.9414 36.1938 14.5264Q38.7451 14.1113 41.5527 12.0605L66.1865-6.05469L90.7959 12.0605Q93.6279 14.1113 96.1792 14.5264Q98.7305 14.9414 100.83 13.3301Q102.905 11.7676 103.345 9.22852Q103.784 6.68945 102.661 3.44238L92.9199-25.4639L117.749-43.2861Q120.605-45.3125 121.753-47.6074Q122.9-49.9023 122.046-52.3926Q121.216-54.8584 118.945-56.0547Q116.675-57.251 113.208-57.2021L82.7637-56.9824L73.5107-86.084Q72.4365-89.4287 70.6055-91.2109Q68.7744-92.9932 66.1865-92.9932Q63.5986-92.9932 61.7676-91.2109Q59.9365-89.4287 58.8623-86.084L49.6094-56.9824L19.1406-57.2021Q15.6982-57.251 13.4277-56.0547Q11.1572-54.8584 10.3271-52.417Q9.47266-49.9268 10.6323-47.6196Q11.792-45.3125 14.624-43.2861L39.4531-25.4639L29.7119 3.44238Q28.5889 6.68945 29.0405 9.22852Q29.4922 11.7676 31.543 13.3301Z"/>
  </g>
  <g id="Semibold-M" transform="matrix(1 0 0 1 1977.81 1126)">
   <path class="multicolor-0:systemYellowColor SFSymbolsPreviewFFCC00" d="M31.2584 12.9211Q33.1451 14.373 35.4607 13.9755Q37.7762 13.578 40.3793 11.6875L65.4488-6.7482L90.5205 11.6875Q93.1389 13.578 95.4548 13.9755Q97.7707 14.373 99.6567 12.9211Q101.528 11.5189 101.923 9.21097Q102.318 6.90308 101.266 3.87802L91.3559-25.5615L116.638-43.7218Q119.29-45.5971 120.34-47.6788Q121.39-49.7604 120.633-52.0012Q119.891-54.2099 117.825-55.2906Q115.759-56.3713 112.524-56.3225L81.5193-56.1111L72.0978-85.7285Q71.0945-88.8336 69.4412-90.4648Q67.7879-92.0959 65.4488-92.0959Q63.1279-92.0959 61.4746-90.4648Q59.8213-88.8336 58.8181-85.7285L49.3958-56.1111L18.3762-56.3225Q15.1558-56.3713 13.0898-55.2906Q11.0237-54.2099 10.2829-52.0172Q9.52606-49.7757 10.5835-47.6864Q11.6409-45.5971 14.2776-43.7218L39.5599-25.5615L29.6494 3.87802Q28.598 6.90308 29.0009 9.21097Q29.4037 11.5189 31.2584 12.9211Z"/>
  </g>
  <g id="Medium-M" transform="matrix(1 0 0 1 1681.65 1126)">
   <path class="multicolor-0:systemYellowColor SFSymbolsPreviewFFCC00" d="M31.0432 12.6114Q32.7675 13.9412 34.9049 13.5574Q37.0422 13.1737 39.4905 11.4044L64.8895-7.2731L90.3114 11.4044Q92.7689 13.1737 94.9059 13.5574Q97.0428 13.9412 98.7679 12.6114Q100.484 11.3304 100.845 9.19762Q101.206 7.06482 100.208 4.20837L90.1695-25.6355L115.796-44.0521Q118.293-45.8122 119.268-47.7322Q120.244-49.6521 119.562-51.7052Q118.887-53.7178 116.977-54.7108Q115.066-55.7037 112.005-55.6549L80.5763-55.4512L71.0266-85.4591Q70.0768-88.382 68.5585-89.8983Q67.0403-91.4146 64.8895-91.4146Q62.7708-91.4146 61.2522-89.8983Q59.7336-88.382 58.7845-85.4591L49.234-55.4512L17.7971-55.6549Q14.7453-55.7037 12.8342-54.7108Q10.923-53.7178 10.2493-51.7136Q9.5665-49.6613 10.5465-47.7367Q11.5265-45.8122 14.0144-44.0521L39.6408-25.6355L29.6028 4.20837Q28.6041 7.06482 28.97 9.19762Q29.3358 11.3304 31.0432 12.6114Z"/>
  </g>
  <g id="Regular-M" transform="matrix(1 0 0 1 1385.66 1126)">
   <path class="multicolor-0:systemYellowColor SFSymbolsPreviewFFCC00" d="M30.7617 12.207Q32.2754 13.3789 34.1797 13.0127Q36.084 12.6465 38.3301 11.0352L64.1602-7.95898L90.0391 11.0352Q92.2852 12.6465 94.1895 13.0127Q96.0938 13.3789 97.6074 12.207Q99.1211 11.084 99.4385 9.17969Q99.7559 7.27539 98.8281 4.63867L88.623-25.7324L114.697-44.4824Q116.992-46.0938 117.871-47.8027Q118.75-49.5117 118.164-51.3184Q117.578-53.0762 115.869-53.9551Q114.16-54.834 111.328-54.7852L79.3457-54.5898L69.6289-85.1074Q68.75-87.793 67.4072-89.1602Q66.0645-90.5273 64.1602-90.5273Q62.3047-90.5273 60.9619-89.1602Q59.6191-87.793 58.7402-85.1074L49.0234-54.5898L17.041-54.7852Q14.209-54.834 12.5-53.9551Q10.791-53.0762 10.2051-51.3184Q9.61914-49.5117 10.498-47.8027Q11.377-46.0938 13.6719-44.4824L39.7461-25.7324L29.541 4.63867Q28.6133 7.27539 28.9307 9.17969Q29.248 11.084 30.7617 12.207Z"/>
  </g>
  <g id="Light-M" transform="matrix(1 0 0 1 1089.96 1126)">
   <path class="multicolor-0:systemYellowColor SFSymbolsPreviewFFCC00" d="M30.3986 11.4807Q31.6246 12.41 33.1657 12.1422Q34.7069 11.8744 36.5746 10.5354L63.1615-8.97293L89.782 10.5354Q91.6496 11.8744 93.1904 12.1422Q94.7311 12.41 95.9572 11.4807Q97.184 10.569 97.4632 9.03587Q97.7425 7.50275 96.9818 5.2742L86.5799-25.9895L113.365-45.285Q115.282-46.6385 115.964-48.0373Q116.646-49.4362 116.181-50.8797Q115.717-52.2888 114.341-53.0315Q112.965-53.7743 110.587-53.7407L77.681-53.5912L67.646-84.9564Q66.9037-87.2177 65.7955-88.3049Q64.6873-89.3921 63.1615-89.3921Q61.6692-89.3921 60.561-88.3049Q59.4528-87.2177 58.7097-84.9564L48.6755-53.5912L15.7692-53.7407Q13.3919-53.7743 12.0159-53.0315Q10.64-52.2888 10.1746-50.8797Q9.70993-49.4362 10.392-48.0373Q11.0741-46.6385 12.9906-45.285L39.7766-25.9895L29.3747 5.2742Q28.6133 7.50275 28.8929 9.03587Q29.1725 10.569 30.3986 11.4807Z"/>
  </g>
  <g id="Thin-M" transform="matrix(1 0 0 1 794.575 1126)">
   <path class="multicolor-0:systemYellowColor SFSymbolsPreviewFFCC00" d="M29.9179 10.5194Q30.764 11.129 31.8245 10.9913Q32.885 10.8536 34.2522 9.87473L61.8401-10.3142L89.4417 9.87473Q90.8089 10.8536 91.8694 10.9913Q92.9298 11.129 93.7752 10.5194Q94.6213 9.88846 94.8509 8.84552Q95.0806 7.80258 94.5389 6.11496L83.8768-26.3298L111.604-46.3455Q113.02-47.3595 113.441-48.3479Q113.863-49.3362 113.559-50.2991Q113.254-51.2482 112.318-51.8108Q111.383-52.3735 109.605-52.3598L75.4784-52.2697L65.0238-84.7557Q64.4608-86.4571 63.6631-87.1738Q62.8654-87.8906 61.8401-87.8906Q60.8284-87.8906 60.0304-87.1738Q59.2323-86.4571 58.67-84.7557L48.2147-52.2697L14.0877-52.3598Q12.3108-52.3735 11.375-51.8108Q10.4393-51.2482 10.1349-50.2991Q9.82971-49.3362 10.2516-48.3479Q10.6735-47.3595 12.0895-46.3455L39.8163-26.3298L29.1542 6.11496Q28.6133 7.80258 28.8429 8.84552Q29.0726 9.88846 29.9179 10.5194Z"/>
  </g>
  <g id="Ultralight-M" transform="matrix(1 0 0 1 498.546 1126)">
   <path class="multicolor-0:systemYellowColor SFSymbolsPreviewFFCC00" d="M29.6722 10.0273Q30.323 10.4729 31.1375 10.4019Q31.9519 10.331 33.0627 9.53674L61.1633-11.0016L89.267 9.53674Q90.3778 10.331 91.1922 10.4019Q92.0067 10.4729 92.6575 10.0273Q93.309 9.53979 93.5127 8.74825Q93.7164 7.9567 93.2884 6.54602L82.4928-26.5045L110.701-46.8895Q111.861-47.7287 112.149-48.5065Q112.438-49.2844 112.215-50.0015Q111.993-50.7149 111.283-51.1852Q110.573-51.6556 109.103-51.6518L74.3507-51.593L63.6803-84.6535Q63.2103-86.0672 62.5713-86.5944Q61.9324-87.1216 61.1633-87.1216Q60.3973-87.1216 59.7584-86.5944Q59.1194-86.0672 58.6494-84.6535L47.979-51.593L13.2263-51.6518Q11.7569-51.6556 11.047-51.1852Q10.3371-50.7149 10.1143-50.0015Q9.89151-49.2844 10.1803-48.5065Q10.4691-47.7287 11.6287-46.8895L39.8369-26.5045L29.0413 6.54602Q28.6133 7.9567 28.817 8.74825Q29.0207 9.53979 29.6722 10.0273Z"/>
  </g>
  <g id="Black-S" transform="matrix(1 0 0 1 2879.74 696)">
   <path class="multicolor-0:systemYellowColor SFSymbolsPreviewFFCC00" d="M25.4395 3.80859Q27.5879 5.46875 30.1758 5.10254Q32.7637 4.73633 35.4492 2.73438L53.6621-10.6445L71.8262 2.73438Q74.5605 4.73633 77.1484 5.10254Q79.7363 5.46875 81.8848 3.80859Q84.0332 2.19727 84.4971-0.366211Q84.9609-2.92969 83.8867-6.00586L76.6602-27.3438L95.0195-40.4785Q97.7539-42.4316 98.877-44.7754Q100-47.1191 99.1211-49.6582Q98.2422-52.2461 95.9717-53.4668Q93.7012-54.6875 90.3809-54.6387L67.9199-54.4434L61.084-75.9766Q60.0586-79.1504 58.2031-80.9326Q56.3477-82.7148 53.6621-82.7148Q50.9766-82.7148 49.1211-80.9326Q47.2656-79.1504 46.2402-75.9766L39.4043-54.4434L16.8945-54.6387Q13.623-54.6875 11.3525-53.4668Q9.08203-52.2461 8.20312-49.707Q7.27539-47.1191 8.44727-44.7754Q9.61914-42.4316 12.3047-40.4785L30.6641-27.3438L23.4375-6.00586Q22.3633-2.92969 22.8516-0.366211Q23.3398 2.19727 25.4395 3.80859Z"/>
  </g>
  <g id="Heavy-S" transform="matrix(1 0 0 1 2583.71 696)">
   <path class="multicolor-0:systemYellowColor SFSymbolsPreviewFFCC00" d="M25.1625 3.45154Q27.1271 4.9614 29.496 4.60701Q31.8649 4.25262 34.3773 2.37732L52.9823-11.29L71.5614 2.37732Q74.1112 4.25262 76.4801 4.60701Q78.849 4.9614 80.8014 3.45154Q82.7538 1.9783 83.1657-0.366211Q83.5777-2.71072 82.5729-5.60226L75.1968-27.4246L93.959-40.8585Q96.5096-42.6735 97.5574-44.8158Q98.6053-46.9582 97.8073-49.2783Q97.0093-51.6235 94.923-52.729Q92.8368-53.8345 89.724-53.7971L66.7557-53.6018L59.7702-75.6081Q58.8142-78.5744 57.1201-80.2181Q55.426-81.8619 52.9823-81.8619Q50.5386-81.8619 48.8503-80.2181Q47.1619-78.5744 46.1945-75.6081L39.2082-53.6018L16.2033-53.7971Q13.1393-53.8345 11.0474-52.729Q8.95538-51.6235 8.15735-49.3149Q7.32117-46.9582 8.40683-44.8158Q9.49249-42.6735 12.0049-40.8585L30.7678-27.4246L23.3917-5.60226Q22.3862-2.71072 22.8168-0.366211Q23.2475 1.9783 25.1625 3.45154Z"/>
  </g>
  <g id="Bold-S" transform="matrix(1 0 0 1 2287.76 696)">
   <path class="multicolor-0:systemYellowColor SFSymbolsPreviewFFCC00" d="M24.8535 3.05176Q26.6113 4.39453 28.7354 4.05273Q30.8594 3.71094 33.1787 1.97754L52.2217-12.0117L71.2646 1.97754Q73.6084 3.71094 75.7324 4.05273Q77.8564 4.39453 79.5898 3.05176Q81.3232 1.7334 81.6772-0.366211Q82.0312-2.46582 81.1035-5.15137L73.5596-27.5146L92.7734-41.2842Q95.1172-42.9443 96.0815-44.8608Q97.0459-46.7773 96.3379-48.8525Q95.6299-50.9277 93.75-51.9043Q91.8701-52.8809 88.9893-52.8564L65.4541-52.6611L58.3008-75.1953Q57.4219-77.9297 55.9082-79.4189Q54.3945-80.9082 52.2217-80.9082Q50.0488-80.9082 48.5474-79.4189Q47.0459-77.9297 46.1426-75.1953L38.9893-52.6611L15.4297-52.8564Q12.5977-52.8809 10.7056-51.9043Q8.81348-50.9277 8.10547-48.877Q7.37305-46.7773 8.36182-44.8608Q9.35059-42.9443 11.6699-41.2842L30.8838-27.5146L23.3398-5.15137Q22.4121-2.46582 22.7783-0.366211Q23.1445 1.7334 24.8535 3.05176Z"/>
  </g>
  <g id="Semibold-S" transform="matrix(1 0 0 1 1991.57 696)">
   <path class="multicolor-0:systemYellowColor SFSymbolsPreviewFFCC00" d="M24.6399 2.77634Q26.2558 4.00314 28.2108 3.6705Q30.1659 3.33786 32.3524 1.70212L51.6975-12.5092L71.0602 1.70212Q73.262 3.33786 75.2171 3.6705Q77.1721 4.00314 78.7544 2.77634Q80.3368 1.56479 80.6507-0.366211Q80.9647-2.29721 80.0903-4.84009L72.4312-27.5772L91.9556-41.5771Q94.1574-43.1313 95.0642-44.8921Q95.9709-46.653 95.3247-48.5596Q94.6793-50.4478 92.9413-51.3355Q91.2033-52.2232 88.4827-52.2079L64.5569-52.0126L57.2876-74.9107Q56.4621-77.4857 55.0728-78.8681Q53.6835-80.2505 51.6975-80.2505Q49.7108-80.2505 48.3383-78.8681Q46.9658-77.4857 46.1067-74.9107L38.8382-52.0126L14.8964-52.2079Q12.2246-52.2232 10.4702-51.3355Q8.71582-50.4478 8.06961-48.5748Q7.40891-46.653 8.33092-44.8921Q9.25293-43.1313 11.4388-41.5771L30.9639-27.5772L23.304-4.84009Q22.4297-2.29721 22.7516-0.366211Q23.0736 1.56479 24.6399 2.77634Z"/>
  </g>
  <g id="Medium-S" transform="matrix(1 0 0 1 1695.26 696)">
   <path class="multicolor-0:systemYellowColor SFSymbolsPreviewFFCC00" d="M24.4781 2.56729Q25.9865 3.70712 27.8137 3.38097Q29.641 3.05481 31.7253 1.49307L51.3-12.8868L70.9053 1.49307Q72.9988 3.05481 74.826 3.38097Q76.6533 3.70712 78.1212 2.56729Q79.5891 1.43661 79.8725-0.366211Q80.1559-2.16904 79.3221-4.60434L71.5752-27.6237L91.3361-41.7999Q93.4296-43.2724 94.2924-44.9154Q95.1553-46.5584 94.5564-48.3368Q93.9583-50.0839 92.3283-50.9041Q90.6982-51.7242 88.0989-51.7159L63.8756-51.5205L56.5193-74.6956Q55.7343-77.1484 54.4395-78.45Q53.1448-79.7516 51.3-79.7516Q49.4553-79.7516 48.1804-78.45Q46.9055-77.1484 46.08-74.6956L38.7238-51.5205L14.492-51.7159Q11.9415-51.7242 10.2917-50.9041Q8.64182-50.0839 8.04291-48.3459Q7.43561-46.5584 8.30727-44.9154Q9.17892-43.2724 11.264-41.7999L31.0242-27.6237L23.2773-4.60434Q22.4434-2.16904 22.7314-0.366211Q23.0194 1.43661 24.4781 2.56729Z"/>
  </g>
  <g id="Regular-S" transform="matrix(1 0 0 1 1399.06 696)">
   <path class="multicolor-0:systemYellowColor SFSymbolsPreviewFFCC00" d="M24.2676 2.29492Q25.6348 3.32031 27.2949 3.00293Q28.9551 2.68555 30.9082 1.2207L50.7812-13.3789L70.7031 1.2207Q72.6562 2.68555 74.3164 3.00293Q75.9766 3.32031 77.2949 2.29492Q78.6133 1.26953 78.8574-0.366211Q79.1016-2.00195 78.3203-4.29688L70.459-27.6855L90.5273-42.0898Q92.4805-43.457 93.2861-44.9463Q94.0918-46.4355 93.5547-48.0469Q93.0176-49.6094 91.5283-50.3418Q90.0391-51.0742 87.5977-51.0742L62.9883-50.8789L55.5176-74.4141Q54.7852-76.709 53.6133-77.9053Q52.4414-79.1016 50.7812-79.1016Q49.1211-79.1016 47.9736-77.9053Q46.8262-76.709 46.0449-74.4141L38.5742-50.8789L13.9648-51.0742Q11.5723-51.0742 10.0586-50.3418Q8.54492-49.6094 8.00781-48.0469Q7.4707-46.4355 8.27637-44.9463Q9.08203-43.457 11.0352-42.0898L31.1035-27.6855L23.2422-4.29688Q22.4609-2.00195 22.7051-0.366211Q22.9492 1.26953 24.2676 2.29492Z"/>
  </g>
  <g id="Light-S" transform="matrix(1 0 0 1 1103.25 696)">
   <path class="multicolor-0:systemYellowColor SFSymbolsPreviewFFCC00" d="M23.9349 1.64413Q25.029 2.45743 26.3714 2.23083Q27.7138 2.00424 29.3343 0.782013L49.8734-14.2723L70.446 0.782013Q72.081 2.00424 73.4234 2.23083Q74.7658 2.45743 75.827 1.64413Q76.8875 0.830841 77.1091-0.487137Q77.3308-1.80511 76.6701-3.73688L68.6272-27.8976L89.3318-42.8009Q90.9515-43.9415 91.5833-45.1584Q92.215-46.3753 91.7839-47.6532Q91.3673-48.9128 90.1657-49.5319Q88.9641-50.1511 86.9316-50.1511L61.5051-50.0008L53.7468-74.2775Q53.1349-76.194 52.1751-77.1484Q51.2154-78.1029 49.8734-78.1029Q48.5458-78.1029 47.6028-77.1484Q46.6599-76.194 46.0144-74.2775L38.2561-50.0008L12.8296-50.1511Q10.8307-50.1511 9.61227-49.5319Q8.39386-48.9128 7.97729-47.6532Q7.54623-46.3753 8.17795-45.1584Q8.80966-43.9415 10.4294-42.8009L31.134-27.8976L23.0911-3.73688Q22.4304-1.80511 22.6521-0.487137Q22.8737 0.830841 23.9349 1.64413Z"/>
  </g>
  <g id="Thin-S" transform="matrix(1 0 0 1 807.733 696)">
   <path class="multicolor-0:systemYellowColor SFSymbolsPreviewFFCC00" d="M23.494 0.783539Q24.2287 1.31683 25.1507 1.21002Q26.0727 1.10321 27.2522 0.201416L48.6717-15.4533L70.1057 0.201416Q71.3203 1.10321 72.2424 1.21002Q73.1644 1.31683 73.8846 0.783539Q74.6056 0.250244 74.7971-0.647354Q74.9886-1.54495 74.4881-2.99606L66.2056-28.1776L87.7502-43.7424Q88.9297-44.5824 89.3311-45.4388Q89.7324-46.2952 89.4417-47.1329Q89.1853-47.9919 88.364-48.4608Q87.5427-48.9296 86.0512-48.9296L59.5428-48.8396L51.4046-74.0974Q50.9529-75.5135 50.2735-76.1475Q49.5941-76.7815 48.6717-76.7815Q47.7852-76.7815 47.1123-76.1475Q46.4394-75.5135 45.9747-74.0974L37.8357-48.8396L11.3281-48.9296Q9.84955-48.9296 9.02138-48.4608Q8.19321-47.9919 7.93762-47.1329Q7.64618-46.2952 8.04787-45.4388Q8.44955-44.5824 9.62906-43.7424L31.1737-28.1776L22.8905-2.99606Q22.3907-1.54495 22.5822-0.647354Q22.7737 0.250244 23.494 0.783539Z"/>
  </g>
  <g id="Ultralight-S" transform="matrix(1 0 0 1 511.632 696)">
   <path class="multicolor-0:systemYellowColor SFSymbolsPreviewFFCC00" d="M23.2689 0.34256Q23.8182 0.731659 24.5247 0.687027Q25.2312 0.642395 26.1856-0.0961304L48.0568-16.0583L69.931-0.0961304Q70.9305 0.642395 71.637 0.687027Q72.3434 0.731659 72.8905 0.34256Q73.4367-0.0473022 73.6126-0.72937Q73.7885-1.41144 73.3704-2.61688L64.9643-28.3211L86.94-44.2238Q87.8944-44.9104 88.1779-45.5822Q88.4613-46.254 88.2416-46.8658Q88.0676-47.5204 87.4413-47.9122Q86.8149-48.304 85.5995-48.304L58.5381-48.2452L50.2045-74.0051Q49.8352-75.1648 49.2992-75.6348Q48.7633-76.1047 48.0568-76.1047Q47.3953-76.1047 46.8609-75.6348Q46.3264-75.1648 45.9541-74.0051L37.6205-48.2452L10.5591-48.304Q9.34753-48.304 8.71925-47.9122Q8.09097-47.5204 7.91702-46.8658Q7.69806-46.254 7.98149-45.5822Q8.26492-44.9104 9.2186-44.2238L31.1943-28.3211L22.7882-2.61688Q22.3701-1.41144 22.546-0.72937Q22.7219-0.0473022 23.2689 0.34256Z"/>
  </g>
 </g>
</svg>
